# xmcd
#
# Track frame offsets:
#	150
#	16619
#	44776
#	63430
#	82283
#	99756
#	116854
#	133480
#	149153
#	167766
#	186911
#	206805
#	221458
#	236343
#	254481
#
# Disc length: 3560 seconds
#
# Revision: 2415331201
# Processed by: cddbd v1.5.2PL0 Copyright (c) Steve Scherf et al.
# Submitted via: EZCDAudioConverter 8.0.6.1
#
DISCID=eb0de60f
DTITLE=Faith Hill - The Hits
DYEAR=2007
DGENRE=Country
TTITLE0=Faith Hill - Red Umbrella
TTITLE1=Faith Hill - Stronger [Live]
TTITLE2=Faith Hill and Tim Mcgraw - I Need You
TTITLE3=Faith Hill - Lost
TTITLE4=Faith Hill - Mississippi Girl
TTITLE5=Faith Hill - Cry
TTITLE6=Faith Hill - There You'll Be
TTITLE7=Faith Hill - The Way You Love Me (Radio Remix)
TTITLE8=Faith Hill - Breathe [Pop Version]
TTITLE9=Faith Hill - The Secret Of Life
TTITLE10=Faith Hill - Let Me Let Go
TTITLE11=Faith Hill - This Kiss [Pop Version]
TTITLE12=Faith Hill - It Matters To Me
TTITLE13=Faith Hill - Piece Of My Heart
TTITLE14=Faith Hill - Wild One
EXTD=
EXTT0=
EXTT1=
EXTT2=
EXTT3=
EXTT4=
EXTT5=
EXTT6=
EXTT7=
EXTT8=
EXTT9=
EXTT10=
EXTT11=
EXTT12=
EXTT13=
EXTT14=
PLAYORDER=
